<svg xmlns="http://www.w3.org/2000/svg"><defs><font id="icomoon" horiz-adv-x="1024"><font-face units-per-em="1024" ascent="960" descent="-64"/><glyph horiz-adv-x="512"/><glyph unicode="" glyph-name="avax" d="M360 122.56H159.988c-23.417 0-42.4 18.983-42.4 42.4a42.209 42.209 0 0 0 5.562 21.008l-.109-.208 352.64 625.52c7.42 12.96 21.167 21.551 36.92 21.551s29.5-8.591 36.811-21.344l.109-.207 105.68-186.56c3.586-6.091 5.704-13.418 5.704-21.24s-2.118-15.149-5.812-21.439l.108.199-258.48-438.8c-7.489-12.582-21.019-20.881-36.487-20.881l-.245.001h.013zm227.84 63.36 118.8 211.92c7.441 12.955 21.198 21.539 36.96 21.539s29.519-8.584 36.851-21.333l.109-.206 120-211.84c3.479-6.026 5.531-13.253 5.531-20.96 0-23.437-18.98-42.441-42.407-42.48h-238.85c-23.461 0-42.48 19.019-42.48 42.48a42.288 42.288 0 0 0 5.595 21.088l-.11-.208z"/><glyph unicode="" glyph-name="bars" horiz-adv-x="896" d="M32 696h832c17.6 0 32 14.4 32 32v80c0 17.6-14.4 32-32 32H32c-17.6 0-32-14.4-32-32v-80c0-17.6 14.4-32 32-32zm0-320h832c17.6 0 32 14.4 32 32v80c0 17.6-14.4 32-32 32H32c-17.6 0-32-14.4-32-32v-80c0-17.6 14.4-32 32-32zm0-320h832c17.6 0 32 14.4 32 32v80c0 17.6-14.4 32-32 32H32c-17.6 0-32-14.4-32-32V88c0-17.6 14.4-32 32-32z"/><glyph unicode="" glyph-name="X" d="m601.407 519.83 349.477 397.503H868.08L564.492 572.259 322.194 917.333H42.667l366.485-521.86L42.667-21.334h82.804l320.4 364.495L701.807-21.334h279.527L601.408 519.829zM487.958 390.892 155.331 856.251h127.204L868.041 36.773H740.837L487.958 390.892z"/><glyph unicode="" horiz-adv-x="1104" d="M1048.422 958.913 618.323 639.487l79.552 188.463 350.547 130.963z"/><glyph unicode="" horiz-adv-x="1104" d="m55.543 958.913 426.641-322.449-75.659 191.486L55.543 958.913z"/><glyph unicode="" horiz-adv-x="1104" d="M893.668 218.478 779.124 42.976l245.094-67.417 70.462 239.026-201.012 3.893z"/><glyph unicode="" horiz-adv-x="1104" d="M10.156 214.585 80.183-24.441l245.094 67.417-114.544 175.502-200.577-3.893z"/><glyph unicode="" horiz-adv-x="1104" d="m311.445 515.004-68.309-103.322 243.354-10.808-8.634 261.513-166.411-147.382z"/><glyph unicode="" horiz-adv-x="1104" d="M792.52 515.004 623.956 665.409l-5.633-264.536 242.941 10.808-68.744 103.322z"/><glyph unicode="" horiz-adv-x="1104" d="m325.276 42.976 146.099 71.332-126.222 98.559-19.877-169.891z"/><glyph unicode="" horiz-adv-x="1104" d="m632.59 114.307 146.534-71.332-20.312 169.891-126.222-98.559z"/><glyph unicode="" horiz-adv-x="1104" d="M779.124 42.976 632.59 114.308l11.678-95.537-1.305-40.189 136.161 64.394z"/><glyph unicode="" horiz-adv-x="1104" d="m325.276 42.976 136.161-64.394-.87 40.189 10.808 95.537-146.099-71.332z"/><glyph unicode="" horiz-adv-x="1104" d="m463.59 275.956-121.894 35.883 86.011 39.341 35.883-75.224z"/><glyph unicode="" horiz-adv-x="1104" d="m640.375 275.956 35.883 75.224 86.446-39.341-122.329-35.883z"/><glyph unicode="" horiz-adv-x="1104" d="m325.276 42.976 20.747 175.502-135.291-3.893L325.276 42.976z"/><glyph unicode="" horiz-adv-x="1104" d="m758.377 218.478 20.747-175.502 114.544 171.609-135.291 3.893z"/><glyph unicode="" horiz-adv-x="1104" d="m861.264 411.682-242.941-10.808 22.487-124.917 35.883 75.224 86.446-39.341 98.124 99.843z"/><glyph unicode="" horiz-adv-x="1104" d="m341.696 311.839 86.446 39.341 35.448-75.224 22.9 124.917-243.354 10.808 98.559-99.843z"/><glyph unicode="" horiz-adv-x="1104" d="m243.136 411.682 102.017-198.815-3.458 98.973-98.559 99.843z"/><glyph unicode="" horiz-adv-x="1104" d="m763.139 311.839-4.328-98.973 102.452 198.815-98.124-99.843z"/><glyph unicode="" horiz-adv-x="1104" d="m486.49 400.873-22.9-124.917 28.533-147.382 6.481 194.074-12.113 78.226z"/><glyph unicode="" horiz-adv-x="1104" d="m618.323 400.873-11.657-77.791 5.176-194.509 28.968 147.382-22.487 124.917z"/><glyph unicode="" horiz-adv-x="1104" d="m640.81 275.956-28.968-147.382 20.747-14.266 126.222 98.559 4.328 98.973-122.329-35.883z"/><glyph unicode="" horiz-adv-x="1104" d="m341.696 311.839 3.458-98.973 126.222-98.559 20.747 14.266-28.533 147.382-121.894 35.883z"/><glyph unicode="" horiz-adv-x="1104" d="m642.963-21.419 1.305 40.189-10.808 9.525H470.506l-9.939-9.525.87-40.189-136.161 64.394 47.54-38.884 96.385-67.004h165.563l96.82 67.004 47.54 38.884-136.161-64.394z"/><glyph unicode="" horiz-adv-x="1104" d="m632.59 114.307-20.747 14.266h-119.72l-20.747-14.266-10.808-95.537 9.939 9.525h162.954l10.808-9.525-11.678 95.537z"/><glyph unicode="" horiz-adv-x="1104" d="m1066.581 618.739 36.731 176.35-54.891 163.823-415.833-308.618 159.931-135.291 226.065-66.134 50.15 58.348-21.617 15.549 34.578 31.556-26.793 20.747 34.578 26.38-22.9 17.289z"/><glyph unicode="" horiz-adv-x="1104" d="m1.087 795.089 36.731-176.35-23.335-17.289 34.578-26.38-26.358-20.747 34.578-31.556-21.617-15.549 49.715-58.348 226.065 66.134 159.931 135.291L55.542 958.913 1.086 795.09z"/><glyph unicode="" horiz-adv-x="1104" d="M1018.585 448.87 792.52 515.004l68.744-103.322-102.452-198.815 134.856 1.718h201.012l-76.094 234.285z"/><glyph unicode="" horiz-adv-x="1104" d="M311.445 515.004 85.38 448.87 10.156 214.585h200.577l134.421-1.718-102.017 198.815 68.309 103.322z"/><glyph unicode="" horiz-adv-x="1104" d="m618.323 400.873 14.266 249.421 65.721 177.655H406.525l64.851-177.655 15.114-249.421 5.198-78.66.435-193.639h119.72l.87 193.639 5.611 78.66z"/><glyph unicode="" glyph-name="angle-up" horiz-adv-x="896" d="M402.8 685.2c25 25 65.6 25 90.6 0l320-320c25-25 25-65.6 0-90.6s-65.6-25-90.6 0L448 549.4 173.2 274.8c-25-25-65.6-25-90.6 0s-25 65.6 0 90.6l320 320z"/><glyph unicode="" glyph-name="buy" d="M938.671 597.333c0-139.093-102.4-253.867-235.52-273.92v2.56C689.924 491.52 555.524 625.92 388.697 639.146h-1.28c20.053 133.12 134.828 235.52 273.921 235.52 153.173 0 277.333-124.16 277.333-277.333zm-299.524-276.48C628.48 456.106 520.107 564.48 384.854 575.146c-7.253.427-14.933.853-22.187.853-153.173 0-277.333-124.16-277.333-277.333S209.494 21.333 362.667 21.333 640 145.493 640 298.666c0 7.253-.427 14.933-.853 22.187zM400.213 261.12 362.666 192l-37.547 69.12-69.12 37.547 69.12 37.547 37.547 69.12 37.547-69.12 69.12-37.547z"/><glyph unicode="" glyph-name="wallet" d="M128 896C57.4 896 0 838.6 0 768V128C0 57.4 57.4 0 128 0h768c70.6 0 128 57.4 128 128v448c0 70.6-57.4 128-128 128H160c-17.6 0-32 14.4-32 32s14.4 32 32 32h736c35.4 0 64 28.6 64 64s-28.6 64-64 64H128zm704-480c35.346 0 64-28.654 64-64s-28.654-64-64-64c-35.346 0-64 28.654-64 64s28.654 64 64 64z"/><glyph unicode="" glyph-name="angle-down" d="M466.8 146.8c25-25 65.6-25 90.6 0l384 384c25 25 25 65.6 0 90.6s-65.6 25-90.6 0L512 282.6 173.2 621.2c-25 25-65.6 25-90.6 0s-25-65.6 0-90.6l384-384z"/><glyph unicode="" glyph-name="github" d="M512.008 947.358C229.27 947.358 0 718.14 0 435.36 0 209.146 146.704 17.228 350.136-50.476c25.586-4.738 34.992 11.11 34.992 24.632 0 12.204-.48 52.542-.696 95.324-142.448-30.976-172.504 60.41-172.504 60.41-23.282 59.176-56.848 74.916-56.848 74.916-46.452 31.778 3.51 31.124 3.51 31.124 51.4-3.61 78.476-52.766 78.476-52.766 45.672-78.27 119.776-55.64 149.004-42.558 4.588 33.086 17.852 55.68 32.506 68.464C304.846 222.012 185.3 265.92 185.3 462.102c0 55.898 20.004 101.574 52.76 137.428-5.316 12.9-22.854 64.972 4.952 135.5 0 0 43.006 13.752 140.84-52.49 40.836 11.348 84.636 17.036 128.154 17.234 43.502-.198 87.336-5.886 128.256-17.234 97.734 66.244 140.656 52.49 140.656 52.49 27.872-70.528 10.35-122.6 5.036-135.5 32.82-35.856 52.694-81.532 52.694-137.428 0-196.654-119.778-239.95-233.79-252.624 18.364-15.89 34.724-47.046 34.724-94.812 0-68.508-.596-123.644-.596-140.508 0-13.628 9.222-29.594 35.172-24.566C877.48 17.368 1024 209.218 1024 435.36c0 282.78-229.234 511.998-511.992 511.998z"/></font>
</defs>
</svg>
